<svg width="72" height="72" viewBox="0 0 72 72" fill="none" xmlns="http://www.w3.org/2000/svg">
<path d="M71.3408 35.948C71.3414 40.7156 70.373 45.4336 68.4941 49.8153C66.6153 54.1971 63.8653 58.1512 60.4113 61.4375H12.0078C11.0879 60.6318 10.219 59.7697 9.40623 58.8562L9.1692 58.5671C7.14576 56.1592 0.589819 47.6174 0.928023 35.9277C1.38185 19.7576 14.9938 0.734375 36.1272 0.734375C45.4664 0.734375 54.4231 4.44437 61.0269 11.0482C67.6308 17.652 71.3408 26.6087 71.3408 35.948Z" fill="#E6E7E1"/>
<path d="M63.0938 58.5989C59.7866 62.5333 55.6589 65.6966 51.0001 67.8673C46.3412 70.0379 41.264 71.1633 36.1243 71.1644C24.6745 71.1644 16.1009 65.0941 11.9991 61.4519C11.08 60.6445 10.2112 59.7814 9.39755 58.8677L9.16052 58.5787C13.086 54.6185 18.3729 51.5429 24.4808 49.7998C26.1719 54.0491 30.7419 57.1016 36.1185 57.1016C41.1164 57.1016 45.4205 54.4798 47.3919 50.7133C47.5394 50.4242 47.681 50.1351 47.7937 49.823C47.9093 49.8548 47.9816 49.8721 48.129 49.9183C54.0664 51.6672 59.2377 54.7023 63.0938 58.5989Z" fill="#168EF7"/>
<path d="M47.7793 49.8085C47.6579 50.0976 47.5249 50.404 47.3775 50.6988C45.4205 54.4566 41.1164 57.0871 36.1041 57.0871C30.7275 57.0871 26.1459 54.049 24.4462 49.8085C24.5762 49.768 24.7034 49.7362 24.8306 49.6987C24.8913 49.6845 24.9511 49.6672 25.0098 49.6466C25.0763 49.6466 25.1457 49.6148 25.2151 49.5975L25.3047 49.5859C25.3047 49.5859 25.8105 49.4501 26.2846 49.3431C27.1816 51.1912 28.5807 52.7496 30.3218 53.8398C32.0629 54.9301 34.0758 55.5083 36.1301 55.5083C38.1844 55.5083 40.1972 54.9301 41.9383 53.8398C43.6794 52.7496 45.0785 51.1912 45.9755 49.3431C46.5927 49.4283 47.198 49.5845 47.7793 49.8085Z" fill="#2F4486"/>
<path d="M45.9668 49.3344C45.069 51.1816 43.6696 52.739 41.9286 53.8286C40.1876 54.9181 38.1752 55.4959 36.1213 55.4959C34.0675 55.4959 32.0551 54.9181 30.3141 53.8286C28.5731 52.739 27.1737 51.1816 26.2759 49.3344C26.6661 49.2362 27.0563 49.1465 27.4553 49.0714L27.7443 49.0078L27.8917 48.9818C27.9727 48.9615 28.0565 48.95 28.1403 48.9297L28.4872 48.8719L28.7503 48.8199H28.7734C28.8746 48.5713 28.9699 48.3025 29.0624 48.0076C29.0942 47.9122 29.126 47.8024 29.1607 47.6983C29.2735 47.2763 29.3573 46.8803 29.4151 46.5276C30.0346 47.0345 30.7027 47.4789 31.4096 47.8544C31.4621 47.8786 31.5133 47.9056 31.5628 47.9354L31.7478 48.025C31.8114 48.0597 31.8895 48.0915 31.9588 48.129L32.0889 48.1869L32.1959 48.2389L32.3317 48.2967L32.4589 48.3458C32.4776 48.3557 32.4969 48.3644 32.5167 48.3719L32.6699 48.4297L32.8636 48.5077H32.881L33.0862 48.5829C33.1012 48.589 33.1166 48.5938 33.1324 48.5973L33.2799 48.6465L33.5053 48.713L33.6065 48.739L33.8117 48.7939C34.2419 48.8988 34.6783 48.976 35.1183 49.0251C35.1645 49.0251 35.2079 49.0251 35.2542 49.0396H35.3496H35.5288H35.6878C35.7542 49.0396 35.8121 49.0396 35.8756 49.0396H36.0346C36.9894 49.0366 37.9374 48.8785 38.8414 48.5713C38.848 48.5735 38.8551 48.5735 38.8617 48.5713C38.8964 48.5642 38.9303 48.5536 38.9628 48.5395C39.1941 48.4615 39.3993 48.3776 39.5785 48.3083L39.8213 48.2042L39.8849 48.1811C40.9195 47.7382 41.8813 47.1418 42.738 46.412C42.8276 46.808 42.9374 47.2301 43.0704 47.6723C43.1918 48.0712 43.3219 48.4412 43.4549 48.7939C43.5589 48.8141 43.6659 48.8257 43.7699 48.8517C43.874 48.8777 43.981 48.8922 44.0821 48.9095L44.3972 48.9673L44.6285 49.0136C44.6863 49.0136 44.7354 49.0309 44.7874 49.0454C45.1835 49.1552 45.5766 49.2362 45.9668 49.3344Z" fill="#EAB198"/>
<path d="M28.7474 14.5891C26.6496 16.3652 24.9663 18.5793 23.816 21.0757C23.0279 22.7199 22.4594 24.4605 22.1249 26.2528C21.8716 27.6561 21.7747 29.0832 21.8359 30.5078C21.6269 30.4658 21.4118 30.4658 21.2028 30.5078C21.0092 29.788 20.8386 28.7734 20.5987 27.4755C20.3096 25.7845 20.1506 24.9376 20.1969 24.0068C20.3448 22.1003 21.0038 20.2689 22.1047 18.7054C23.9287 16.1674 26.9812 14.8262 28.7474 14.5891Z" fill="#2D2D2D"/>
<path d="M51.6383 27.4698C51.4071 28.7763 51.2278 29.7823 51.0342 30.502C50.8289 31.2825 50.6064 31.7363 50.2855 31.8924C50.3375 31.4299 50.3751 30.9761 50.3925 30.5136C50.5156 28.1022 50.1721 25.6897 49.3807 23.4084L49.4964 23.3246L49.6236 23.2292C49.6492 23.212 49.6734 23.1927 49.6958 23.1714C50.2019 22.775 50.6512 22.311 51.0313 21.7926C51.1413 21.6481 51.2198 21.482 51.2616 21.3053C51.3034 21.1285 51.3077 20.9449 51.2741 20.7664C51.7046 21.7946 51.9643 22.8862 52.043 23.9981C52.0921 24.9376 51.9389 25.7845 51.6383 27.4698Z" fill="#2D2D2D"/>
<path opacity="0.2" d="M48.1146 49.9039C47.8746 50.193 47.6261 50.4415 47.3775 50.6988C46.8069 51.2647 46.1984 51.791 45.5564 52.2742C44.7117 52.9077 43.7899 53.4312 42.8132 53.8323C42.1988 54.0809 41.5618 54.2697 40.9111 54.3959C40.3348 54.5051 39.7488 54.5545 39.1623 54.5433C38.0093 54.5228 36.8702 54.2875 35.8034 53.8496C35.7398 53.8274 35.6779 53.8003 35.6184 53.7687C34.7697 53.4077 33.9656 52.9498 33.2221 52.4043C31.8166 51.3631 30.5803 50.1111 29.5568 48.6927C29.3891 48.4673 29.2301 48.2389 29.0682 48.0076C29.1 47.9122 29.1318 47.8024 29.1665 47.6983C29.2793 47.2763 29.3631 46.8803 29.4209 46.5276C29.5886 46.6606 29.7678 46.7965 29.9412 46.9237C30.4123 47.265 30.9047 47.5759 31.4154 47.8544C31.4679 47.8786 31.5191 47.9056 31.5686 47.9354L31.7536 48.025C31.8172 48.0597 31.8953 48.0915 31.9646 48.129L32.0947 48.1869L32.2017 48.2389L32.3375 48.2967L32.4647 48.3458C32.4834 48.3557 32.5027 48.3644 32.5225 48.3719L32.6757 48.4297L32.8694 48.5077H32.8868L33.092 48.5829C33.107 48.589 33.1224 48.5938 33.1382 48.5973L33.2857 48.6465L33.5111 48.713L33.6123 48.739L33.8175 48.7939C34.2465 48.9043 34.6833 48.9816 35.1241 49.0251C35.1703 49.0251 35.2137 49.0251 35.26 49.0396H35.3553H35.5346H35.6936C35.76 49.0396 35.8178 49.0396 35.8814 49.0396H36.0404C36.9947 49.0305 37.9417 48.8725 38.8472 48.5713C38.8538 48.5735 38.8609 48.5735 38.8675 48.5713C38.9022 48.5642 38.9361 48.5536 38.9686 48.5395C39.1623 48.473 39.3473 48.4037 39.5323 48.3285L39.5901 48.3083L39.8271 48.2042L39.8907 48.1811C40.7328 47.7955 41.5321 47.3227 42.2755 46.7705C42.4345 46.6548 42.5906 46.5334 42.7438 46.412C42.8334 46.808 42.9432 47.2301 43.0762 47.6723C43.1976 48.0712 43.3277 48.4412 43.4607 48.7939C43.5647 48.8141 43.6717 48.8257 43.7757 48.8517C43.8798 48.8777 43.9868 48.8922 44.0879 48.9095L44.403 48.9673L44.6343 49.0136C44.6921 49.0136 44.7412 49.0309 44.7932 49.0454C45.1835 49.1292 45.5766 49.2101 45.9668 49.3084C46.5739 49.4472 47.1838 49.5975 47.7793 49.7825L48.1146 49.9039Z" fill="black"/>
<path d="M52.8986 33.6528C52.8523 35.153 51.8955 36.6706 50.8231 37.2285C50.6791 37.3038 50.5268 37.362 50.3693 37.4019H50.3346C50.1405 37.4495 49.9386 37.4554 49.742 37.4193C49.5331 37.3777 49.3357 37.2909 49.1639 37.1649L49.083 37.1071C48.9645 37.0113 48.856 36.9038 48.7592 36.7862C47.9874 35.8555 47.6723 34.1066 48.1811 32.7133C48.3894 32.1724 48.7073 31.6803 49.1148 31.268C49.4588 30.8989 49.9027 30.6378 50.3924 30.5165C50.6186 30.4717 50.8513 30.4717 51.0775 30.5165C52.3494 30.7651 52.9362 32.3983 52.8986 33.6528Z" fill="#EAB198"/>
<path opacity="0.3" d="M52.8986 33.6528C52.8523 35.153 51.8955 36.6706 50.8231 37.2285C50.6791 37.3038 50.5268 37.362 50.3693 37.4019H50.3346C50.1405 37.4495 49.9386 37.4554 49.742 37.4193C49.5331 37.3777 49.3357 37.2909 49.1639 37.1649L49.083 37.1071C48.9645 37.0113 48.856 36.9038 48.7592 36.7862C47.9874 35.8555 47.6723 34.1066 48.1811 32.7133C48.3894 32.1724 48.7073 31.6803 49.1148 31.268C49.4588 30.8989 49.9027 30.6378 50.3924 30.5165C50.6186 30.4717 50.8513 30.4717 51.0775 30.5165C52.3494 30.7651 52.9362 32.3983 52.8986 33.6528Z" fill="black"/>
<path d="M23.4749 36.792C23.371 36.9278 23.2506 37.0502 23.1164 37.1562C23.1017 37.1678 23.0863 37.1784 23.0702 37.188C22.9025 37.3105 22.71 37.3947 22.5062 37.4347C22.3024 37.4746 22.0923 37.4694 21.8908 37.4193C21.8784 37.4219 21.8656 37.4219 21.8532 37.4193C21.6976 37.3793 21.5472 37.3211 21.4052 37.2458C20.3299 36.688 19.3818 35.1704 19.3297 33.6701C19.2893 32.4156 19.8732 30.7795 21.1479 30.5251C21.1632 30.5223 21.1789 30.5223 21.1942 30.5251C21.4047 30.4763 21.623 30.4704 21.8359 30.5078C22.3291 30.6229 22.7763 30.8838 23.1193 31.2565C23.1918 31.3298 23.2603 31.407 23.3246 31.4877C23.6358 31.8515 23.8822 32.2661 24.053 32.7133C24.5646 34.1153 24.2496 35.8641 23.4749 36.792Z" fill="#EAB198"/>
<path d="M50.3866 30.5078C50.3692 30.9703 50.3316 31.4241 50.2796 31.8866C50.081 33.6675 49.6765 35.4194 49.0742 37.1071C47.7301 40.888 45.4667 44.2412 42.7437 46.4323C42.5905 46.5537 42.4345 46.6751 42.2755 46.7907C41.532 47.3429 40.7327 47.8157 39.8907 48.2013L39.8271 48.2244L39.5901 48.3285L39.5323 48.3487C39.3473 48.4239 39.1623 48.4933 38.9686 48.5598C38.936 48.5738 38.9021 48.5844 38.8674 48.5916C38.8609 48.5938 38.8538 48.5938 38.8472 48.5916C37.9416 48.8927 36.9947 49.0507 36.0404 49.0598H35.8814C35.8178 49.0598 35.76 49.0598 35.6935 49.0598H35.5345H35.3553H35.2599C35.2137 49.0598 35.1703 49.0598 35.1241 49.0454C34.6833 49.0019 34.2465 48.9246 33.8175 48.8141L33.6123 48.7592L33.5111 48.7332L33.2856 48.6667L33.1382 48.6176C33.1224 48.6141 33.1069 48.6092 33.092 48.6031L32.8867 48.528H32.8694L32.6757 48.4499L32.5225 48.3921C32.5027 48.3846 32.4834 48.3759 32.4647 48.3661L32.3375 48.3169L32.2016 48.2591L32.0947 48.2071L31.953 48.1406C31.8837 48.103 31.8056 48.0712 31.742 48.0366L31.557 47.9469C31.5075 47.9172 31.4563 47.8902 31.4038 47.866C30.8931 47.5875 30.4007 47.2766 29.9296 46.9352C29.7562 46.808 29.577 46.6722 29.4093 46.5392C28.4997 45.8062 27.6685 44.9808 26.9291 44.0764C25.2562 42.0152 23.965 39.6716 23.1164 37.1562C23.0702 37.0551 23.0384 36.9452 23.0008 36.8383C22.4655 35.2344 22.1068 33.577 21.9312 31.8953C21.9312 31.7884 21.9052 31.6727 21.8995 31.5629C21.8734 31.2738 21.8474 30.9848 21.8359 30.6726C21.8359 30.6205 21.8359 30.5772 21.8359 30.5251C21.7742 29.0986 21.8712 27.6696 22.1249 26.2644C22.4622 24.4716 23.0336 22.731 23.8246 21.0873C24.9749 18.5909 26.6582 16.3768 28.756 14.6007C28.8456 14.5255 28.9381 14.4533 29.0277 14.3839C31.0266 12.7619 33.5127 11.8589 36.0866 11.8199C38.9021 11.8199 41.3996 12.8894 43.4895 14.5949C44.6016 15.5099 45.5916 16.564 46.4351 17.7312C47.4435 19.1156 48.2802 20.6171 48.9268 22.203C49.0944 22.5991 49.2419 23.0037 49.3748 23.4084C50.1662 25.6896 50.5097 28.1022 50.3866 30.5136V30.5078Z" fill="#EAB198"/>
<path opacity="0.2" d="M52.04 23.9981C51.7622 24.317 51.4533 24.6075 51.1179 24.8653C51.0919 24.8913 50.9705 24.9809 50.8115 25.1024C50.5485 25.2902 50.2797 25.4752 50.0022 25.6545C46.9884 27.6149 43.4922 28.7062 39.8983 28.8082C36.3044 28.9102 32.7521 28.019 29.6319 26.2326C29.0256 25.8777 28.438 25.4918 27.8715 25.0763C27.6779 24.9347 27.4929 24.7873 27.3079 24.6485C26.8054 24.261 26.323 23.848 25.8625 23.4113C25.6515 23.2061 25.4405 22.9951 25.2353 22.7754C24.9664 22.4863 24.7034 22.1973 24.4548 21.9082C24.3492 21.7864 24.2687 21.6449 24.2178 21.492C24.7372 22.0055 25.2864 22.4881 25.8625 22.9373C26.595 23.5149 27.3678 24.0394 28.175 24.5069C30.8925 26.0752 33.9474 26.9665 37.0819 27.1054C40.2163 27.2442 43.3382 26.6266 46.1836 25.3047C47.3003 24.7787 48.3649 24.1486 49.3633 23.4229L49.479 23.3391L49.6061 23.2437C49.6318 23.2265 49.656 23.2072 49.6784 23.1859C50.1916 22.7862 50.6468 22.3173 51.0312 21.7926C51.1412 21.6481 51.2197 21.482 51.2615 21.3053C51.3034 21.1285 51.3076 20.9449 51.274 20.7664C51.7035 21.7948 51.9622 22.8864 52.04 23.9981Z" fill="black"/>
<path d="M51.0313 21.7926C50.6503 22.3112 50.2 22.7751 49.6929 23.1714C49.6705 23.1927 49.6463 23.212 49.6206 23.2292L49.4935 23.3246L49.3778 23.4084C48.3794 24.1342 47.3148 24.7642 46.1981 25.2902C43.3557 26.6155 40.2362 27.2375 37.1029 27.1037C33.9695 26.9698 30.9144 26.0841 28.1953 24.5213C27.3881 24.0539 26.6153 23.5294 25.8828 22.9517C25.3067 22.5026 24.7575 22.02 24.2381 21.5064C24.0964 21.3648 23.949 21.2173 23.8218 21.0844C23.5501 20.7953 23.2957 20.5063 23.0442 20.2172C22.844 19.9787 22.7343 19.6773 22.7343 19.3659C22.7343 19.0545 22.844 18.7531 23.0442 18.5146C24.0982 17.2588 25.3064 16.1409 26.6402 15.1875C27.0044 14.9254 27.3821 14.6759 27.7733 14.4388C30.8303 12.5671 34.3464 11.5795 37.931 11.5858C38.8473 11.5858 41.3795 11.5858 43.6862 12.453C46.1577 13.378 47.947 15.1326 49.1784 16.8496C49.9894 17.9795 50.6683 19.1987 51.2018 20.4831C51.2409 20.5753 51.2662 20.6727 51.277 20.7722C51.3093 20.95 51.3042 21.1326 51.2619 21.3083C51.2196 21.484 51.141 21.649 51.0313 21.7926Z" fill="#2D2D2D"/>
</svg>
