<svg width="8" height="18" viewBox="0 0 8 18" fill="none" xmlns="http://www.w3.org/2000/svg">
<path d="M7.13168 4.99079C7.13168 4.59414 6.97721 4.2212 6.69676 3.94075L5.59694 2.84098C5.423 2.66695 5.32717 2.43568 5.32717 2.18966V1.99455C5.50631 1.89504 5.62792 1.70402 5.62792 1.48496V0.582707C5.62792 0.261391 5.36653 0 5.04522 0H2.6392C2.31788 0 2.05649 0.261391 2.05649 0.582707V1.48496C2.05649 1.70402 2.17811 1.89504 2.35725 1.99455V2.18966C2.35725 2.43568 2.26146 2.66699 2.08747 2.84094L0.987659 3.94075C0.707208 4.22124 0.552734 4.59414 0.552734 4.99079V10.5075C0.552734 10.7397 0.642922 10.9512 0.789952 11.109C0.642922 11.2669 0.552734 11.4783 0.552734 11.7105C0.552734 11.9427 0.642922 12.1542 0.789952 12.312C0.642922 12.4699 0.552734 12.6813 0.552734 12.9135C0.552734 13.1458 0.642922 13.3572 0.789952 13.515C0.642922 13.6729 0.552734 13.8843 0.552734 14.1165C0.552734 14.3488 0.642922 14.5602 0.789952 14.718C0.642922 14.8759 0.552734 15.0873 0.552734 15.3195V15.9211C0.552734 16.7399 1.2189 17.406 2.0377 17.406H5.64672C6.46552 17.406 7.13168 16.7399 7.13168 15.9211V15.3195C7.13168 15.0873 7.04149 14.8759 6.89446 14.718C7.04149 14.5602 7.13168 14.3488 7.13168 14.1165C7.13168 13.8843 7.04149 13.6729 6.89446 13.515C7.04149 13.3572 7.13168 13.1458 7.13168 12.9135C7.13168 12.6813 7.04149 12.4699 6.89446 12.312C7.04149 12.1542 7.13168 11.9427 7.13168 11.7105C7.13168 11.4783 7.04149 11.2669 6.89446 11.109C7.04149 10.9512 7.13168 10.7397 7.13168 10.5075V4.99079ZM2.6204 0.582707C2.6204 0.572368 2.62882 0.56391 2.6392 0.56391H5.04522C5.05559 0.56391 5.06401 0.572368 5.06401 0.582707V1.48496C5.06401 1.4953 5.05559 1.50376 5.04522 1.50376H2.6392C2.62882 1.50376 2.6204 1.4953 2.6204 1.48496V0.582707ZM1.11664 4.99079C1.11664 4.74477 1.21243 4.5135 1.38642 4.33955L2.48623 3.2397C2.76668 2.95921 2.92116 2.58632 2.92116 2.18966V2.06767H4.76326V2.18966C4.76326 2.58628 4.9177 2.95921 5.19819 3.23974L6.298 4.33955C6.47195 4.5135 6.56777 4.74477 6.56777 4.99079V10.5075C6.56777 10.6837 6.42443 10.8271 6.24822 10.8271H1.43619C1.25999 10.8271 1.11664 10.6837 1.11664 10.5075V4.99079ZM6.56777 11.7105C6.56777 11.8867 6.42443 12.0301 6.24822 12.0301H1.43619C1.25999 12.0301 1.11664 11.8867 1.11664 11.7105C1.11664 11.5343 1.25999 11.391 1.43619 11.391H6.24822C6.42443 11.391 6.56777 11.5343 6.56777 11.7105ZM6.56777 12.9135C6.56777 13.0897 6.42443 13.2331 6.24822 13.2331H1.43619C1.25999 13.2331 1.11664 13.0897 1.11664 12.9135C1.11664 12.7373 1.25999 12.594 1.43619 12.594H6.24822C6.42443 12.594 6.56777 12.7373 6.56777 12.9135ZM6.56777 14.1165C6.56777 14.2927 6.42443 14.4361 6.24822 14.4361H1.43619C1.25999 14.4361 1.11664 14.2927 1.11664 14.1165C1.11664 13.9403 1.25999 13.797 1.43619 13.797H6.24822C6.42443 13.797 6.56777 13.9403 6.56777 14.1165ZM6.56777 15.9211C6.56777 16.4289 6.15458 16.8421 5.64672 16.8421H2.0377C1.52984 16.8421 1.11664 16.4289 1.11664 15.9211V15.3195C1.11664 15.1433 1.25999 15 1.43619 15H6.24822C6.42443 15 6.56777 15.1433 6.56777 15.3195V15.9211Z" fill="#0093EF"/>
<path d="M3.73594 8.4183C4.55474 8.4183 5.2209 7.75214 5.2209 6.93334C5.2209 6.21729 4.17714 4.66999 3.96793 4.36706C3.9153 4.29086 3.82857 4.24537 3.73594 4.24537C3.64331 4.24537 3.55658 4.29086 3.50395 4.36706C3.29474 4.66999 2.25098 6.21729 2.25098 6.93334C2.25098 7.75214 2.91714 8.4183 3.73594 8.4183ZM3.37658 5.62571C3.50395 5.40593 3.63229 5.20007 3.73669 5.03751C4.175 5.71958 4.65699 6.59717 4.65699 6.93334C4.65699 7.44123 4.2438 7.85439 3.73594 7.85439C3.22808 7.85439 2.81489 7.44123 2.81489 6.93334C2.81489 6.8315 2.86962 6.50018 3.37658 5.62571Z" fill="#0093EF"/>
</svg>
